HIERARCHY
ROOT Hips
{
	OFFSET 56.877701 -32.693596 43.373703
	CHANNELS 6 Xposition Yposition Zposition Zrotation Xrotation Yrotation
	JOINT Chest
	{
		OFFSET -0.779999 1.005800 5.403099
		CHANNELS 6 Xposition Yposition Zposition Zrotation Xrotation Yrotation
		JOINT Chest2
		{
			OFFSET 0.000000 0.000000 4.236801
			CHANNELS 6 Xposition Yposition Zposition Zrotation Xrotation Yrotation
			JOINT Neck
			{
				OFFSET 0.000000 0.000000 9.874401
				CHANNELS 6 Xposition Yposition Zposition Zrotation Xrotation Yrotation
				JOINT Head
				{
					OFFSET 0.000000 0.000002 2.173893
					CHANNELS 6 Xposition Yposition Zposition Zrotation Xrotation Yrotation
					End Site
					{
						OFFSET 0.000000 0.000000 6.508102
					}
				}
			}
			JOINT LeftCollar
			{
				OFFSET 2.681599 -0.377600 5.432499
				CHANNELS 6 Xposition Yposition Zposition Zrotation Xrotation Yrotation
				JOINT LeftShoulder
				{
					OFFSET 5.161499 0.000000 0.000000
					CHANNELS 6 Xposition Yposition Zposition Zrotation Xrotation Yrotation
					JOINT LeftElbow
					{
						OFFSET 0.000000 0.000000 -10.869099
						CHANNELS 6 Xposition Yposition Zposition Zrotation Xrotation Yrotation
						JOINT LeftWrist
						{
							OFFSET 0.000000 0.000000 -13.344799
							CHANNELS 6 Xposition Yposition Zposition Zrotation Xrotation Yrotation
							End Site
							{
								OFFSET 0.000000 0.000000 -2.173901
							}
						}
					}
				}
			}
			JOINT RightCollar
			{
				OFFSET -2.381901 -1.419600 6.136600
				CHANNELS 6 Xposition Yposition Zposition Zrotation Xrotation Yrotation
				JOINT RightShoulder
				{
					OFFSET -4.550499 0.000000 0.000000
					CHANNELS 6 Xposition Yposition Zposition Zrotation Xrotation Yrotation
					JOINT RightElbow
					{
						OFFSET 0.000000 0.000000 -11.106499
						CHANNELS 6 Xposition Yposition Zposition Zrotation Xrotation Yrotation
						JOINT RightWrist
						{
							OFFSET 0.000000 0.000000 -12.874298
							CHANNELS 6 Xposition Yposition Zposition Zrotation Xrotation Yrotation
							End Site
							{
								OFFSET 0.000000 0.000000 -2.173901
							}
						}
					}
				}
			}
		}
	}
	JOINT LeftHip
	{
		OFFSET 2.431900 0.469601 -2.489399
		CHANNELS 6 Xposition Yposition Zposition Zrotation Xrotation Yrotation
		JOINT LeftKnee
		{
			OFFSET 0.000000 -0.000004 -18.200201
			CHANNELS 6 Xposition Yposition Zposition Zrotation Xrotation Yrotation
			JOINT LeftAnkle
			{
				OFFSET 0.000000 0.000000 -16.279900
				CHANNELS 6 Xposition Yposition Zposition Zrotation Xrotation Yrotation
				End Site
				{
					OFFSET 0.000000 -8.394100 0.000000
				}
			}
		}
	}
	JOINT RightHip
	{
		OFFSET -1.987999 -0.073502 -2.713001
		CHANNELS 6 Xposition Yposition Zposition Zrotation Xrotation Yrotation
		JOINT RightKnee
		{
			OFFSET 0.000000 -0.000004 -19.547802
			CHANNELS 6 Xposition Yposition Zposition Zrotation Xrotation Yrotation
			JOINT RightAnkle
			{
				OFFSET 0.000000 0.000000 -14.881199
				CHANNELS 6 Xposition Yposition Zposition Zrotation Xrotation Yrotation
				End Site
				{
					OFFSET 0.000000 -7.922699 0.000000
				}
			}
		}
	}
}
MOTION
Frames: 6
Frame Time: 0.041667
64.348495 -35.507298 25.339298 4237.571321 -26.188629 0.575178 -0.779989 1.005796 5.403094 -10.631287 -30.612402 6.660307 0.000003 0.000003 4.236810 9.585575 7.034303 0.933038 0.000005 -0.000007 9.874411 -17.105196 -42.082616 -14.529137 0.000002 0.000000 2.173895 -3.964636 2.045864 5.444383 2.681599 -0.377608 5.432511 -5.276590 -1.718214 -72.229756 5.161499 0.000002 0.000003 131.989950 -111.741369 1.738279 0.000001 -0.000001 -10.869107 27.222644 -2.250616 -1.558356 0.000003 0.000009 -13.344806 39.339028 -21.729861 0.911087 -2.381903 -1.419605 6.136609 -7.679914 -1.372335 39.640874 -4.550508 0.000005 0.000013 -1161.208220 -490.377857 -309.178458 -0.000000 -0.000004 -11.106503 709.393938 -8.736494 714.627776 0.000010 -0.000002 -12.874299 -392.413246 -2.743117 -29.707495 2.431905 0.469601 -2.489405 -101.801593 25.985871 85.464333 0.000010 -0.000014 -18.200201 13.436894 9.578576 21.838258 -0.000006 -0.000002 -16.279898 36.142977 16.355206 31.312900 -1.987991 -0.073500 -2.713002 -102.033361 -33.956022 -61.734091 -0.000007 -0.000002 -19.547791 -1361.211131 107.565897 -395.236628 0.000002 -0.000001 -14.881198 2205.796806 23.470074 -370.199532
64.336998 -35.483597 25.325508 4237.607166 -26.150919 0.638190 -0.779999 1.005808 5.403104 -10.667740 -30.540371 6.647573 0.000012 -0.000001 4.236799 9.566599 7.011009 0.929134 0.000010 0.000001 9.874411 -16.982395 -41.968456 -14.515521 0.000002 0.000004 2.173902 -3.933930 1.882700 5.443111 2.681598 -0.377601 5.432505 -5.319375 -1.479037 -72.328350 5.161517 0.000004 -0.000000 132.150049 -111.715107 1.752904 -0.000006 -0.000003 -10.869110 27.109724 -2.245733 -1.535173 -0.000000 0.000012 -13.344805 39.291606 -21.724680 1.088090 -2.381892 -1.419607 6.136592 -7.546826 -1.122305 39.568976 -4.550507 0.000010 0.000021 -1161.266905 -490.405069 -309.105456 0.000003 -0.000005 -11.106510 709.488140 -8.757742 714.654222 0.000004 0.000000 -12.874301 -392.552391 -2.735919 -29.726841 2.431901 0.469602 -2.489402 -101.826919 26.118138 85.436268 -0.000000 -0.000003 -18.200203 13.413518 9.636109 21.861192 -0.000006 -0.000002 -16.279907 36.141666 16.296732 31.402228 -1.988001 -0.073498 -2.713008 -102.041845 -33.927752 -61.780461 -0.000002 -0.000004 -19.547802 -1361.019339 107.614063 -395.482897 -0.000005 -0.000003 -14.881198 2205.906745 23.510942 -370.336053
64.326797 -35.460899 25.312702 4237.640825 -26.105891 0.675279 -0.779998 1.005796 5.403089 -10.707596 -30.497901 6.640161 0.000000 -0.000006 4.236809 9.553345 6.991005 0.925380 0.000001 0.000005 9.874405 -16.839213 -41.836866 -14.470147 0.000006 0.000001 2.173886 -3.908656 1.710897 5.440108 2.681592 -0.377601 5.432496 -5.388961 -1.190724 -72.390354 5.161513 0.000000 0.000005 132.317922 -111.702560 1.732916 -0.000007 0.000005 -10.869102 26.932471 -2.254682 -1.501588 0.000002 0.000002 -13.344795 39.312434 -21.718898 1.286752 -2.381910 -1.419597 6.136591 -7.393588 -0.833415 39.512648 -4.550493 0.000011 0.000006 -1161.351381 -490.441569 -309.024997 0.000005 -0.000006 -11.106498 709.615783 -8.766632 714.695477 0.000004 0.000000 -12.874300 -392.731123 -2.731575 -29.787934 2.431897 0.469603 -2.489408 -101.840135 26.243084 85.399570 0.000011 -0.000013 -18.200203 13.408568 9.690595 21.873003 -0.000001 -0.000006 -16.279881 36.130164 16.268896 31.418484 -1.987999 -0.073504 -2.713015 -102.069179 -33.907880 -61.847909 -0.000008 -0.000002 -19.547791 -1360.812685 107.668165 -395.728702 -0.000003 0.000002 -14.881197 2206.006193 23.550569 -370.450992
64.317802 -35.438297 25.299911 4237.674047 -26.051002 0.686976 -0.779994 1.005804 5.403097 -10.740969 -30.487325 6.644317 -0.000005 0.000003 4.236802 9.546001 6.970746 0.921262 -0.000004 -0.000003 9.874399 -16.712527 -41.677896 -14.395547 0.000001 0.000006 2.173895 -3.875545 1.535722 5.413697 2.681590 -0.377604 5.432502 -5.494531 -0.821232 -72.442250 5.161493 -0.000008 0.000003 132.450072 -111.695873 1.620217 -0.000002 -0.000002 -10.869096 26.792238 -2.248105 -1.472373 0.000001 0.000006 -13.344794 39.275094 -21.706761 1.513974 -2.381910 -1.419600 6.136588 -7.216044 -0.496025 39.470799 -4.550501 0.000008 0.000008 -1161.483504 -490.488233 -308.944537 0.000000 -0.000002 -11.106487 709.764736 -8.760804 714.751976 0.000002 -0.000001 -12.874289 -392.877016 -2.397321 -29.807113 2.431896 0.469603 -2.489393 -101.835887 26.372412 85.347646 0.000007 -0.000007 -18.200193 13.438074 9.755740 21.874789 0.000003 -0.000003 -16.279888 36.087359 16.285141 31.331341 -1.987995 -0.073488 -2.713006 -102.133977 -33.884743 -61.949857 -0.000002 -0.000003 -19.547794 -1360.609418 107.730258 -395.945329 0.000002 0.000002 -14.881201 2206.074604 23.594935 -370.513584
64.309402 -35.415798 25.287104 4237.707269 -25.994817 0.678135 -0.779999 1.005797 5.403103 -10.772819 -30.497669 6.657551 -0.000001 -0.000002 4.236801 9.546317 6.951122 0.916825 0.000001 0.000006 9.874402 -16.606831 -41.497125 -14.311762 0.000002 0.000003 2.173877 -3.845023 1.356487 5.374731 2.681596 -0.377601 5.432504 -5.639235 -0.388770 -72.503858 5.161492 -0.000001 0.000004 132.508060 -111.696631 1.394862 -0.000001 -0.000007 -10.869105 26.705061 -2.248819 -1.463217 0.000002 -0.000001 -13.344798 39.135194 -21.646056 1.748329 -2.381902 -1.419603 6.136598 -7.020380 -0.119704 39.438544 -4.550491 0.000011 0.000008 -1161.651690 -490.546536 -308.862056 0.000007 -0.000010 -11.106483 709.795007 -8.724088 714.802246 -0.000001 -0.000005 -12.874294 -393.000533 -2.357047 -29.961205 2.431903 0.469596 -2.489401 -101.826175 26.493973 85.294323 0.000006 -0.000006 -18.200203 13.504077 9.820664 21.866419 -0.000005 -0.000004 -16.279892 36.024224 16.348860 31.143221 -1.988001 -0.073497 -2.713007 -102.239906 -33.848099 -62.080204 -0.000009 -0.000006 -19.547802 -1360.415113 107.799605 -396.118269 -0.000008 -0.000005 -14.881197 2206.106077 23.646195 -370.515086
64.301300 -35.392601 25.273407 4237.744862 -25.943369 0.662150 -0.780002 1.005813 5.403096 -10.822956 -30.516493 6.667663 -0.000000 0.000006 4.236805 9.559955 6.935991 0.912669 0.000003 -0.000006 9.874408 -16.522783 -41.310155 -14.253513 0.000004 0.000004 2.173885 -3.819430 1.178923 5.333934 2.681598 -0.377603 5.432510 -5.813256 0.057993 -72.604624 5.161511 0.000005 -0.000003 132.661904 -111.690101 1.250782 -0.000002 -0.000004 -10.869099 26.659079 -2.214033 -1.458539 0.000001 0.000000 -13.344811 38.976519 -21.568021 1.994015 -2.381907 -1.419602 6.136601 -6.820695 0.277286 39.401408 -4.550508 0.000018 0.000010 -1161.827308 -490.616859 -308.768728 -0.000003 -0.000009 -11.106512 709.627203 -8.655870 714.832572 -0.000001 -0.000006 -12.874294 -392.921331 -2.302440 -30.147700 2.431903 0.469620 -2.489401 -101.817398 26.627129 85.247133 0.000000 -0.000010 -18.200201 13.594033 9.888738 21.848459 -0.000000 -0.000005 -16.279903 35.939988 16.455983 30.861155 -1.987997 -0.073484 -2.712997 -102.373273 -33.798109 -62.228003 -0.000003 -0.000001 -19.547798 -1360.233047 107.876513 -396.254654 0.000001 0.000004 -14.881199 2206.102580 23.701465 -370.465144
